<svg height="64px" width="64px" version="1.1" id="Layer_1" xmlns="http://www.w3.org/2000/svg" xmlns:xlink="http://www.w3.org/1999/xlink" viewBox="0 0 512.131 512.131" xml:space="preserve" fill="#000000"><g id="SVGRepo_bgCarrier" stroke-width="0"></g><g id="SVGRepo_tracerCarrier" stroke-linecap="round" stroke-linejoin="round"></g><g id="SVGRepo_iconCarrier"> <circle style="fill:#fe5e15;" cx="256.066" cy="256" r="256"></circle> <path style="fill:#000000;" d="M77.247,338.967c15.121-26.691,38.788-57.59,14.726-104.793 C43.982,61.929,220.039,37.473,244.758,105.056c40.234,16.041,39.182,104.004,18.539,150.024 c-0.92,18.934-15.778,34.712,18.013,83.624C191.77,353.693,139.571,348.565,77.247,338.967z"></path> <path style="fill:#FED198;" d="M151.01,289.397c-1.578,29.321-11.965,38.393-26.428,46.151 c-7.363,6.443-59.431,10.387-78.628,34.317c-3.287,4.207-6.574,10.256-9.598,17.882c44.705,74.552,126.356,124.384,219.579,124.384 c5.785,0,11.439-0.132,17.093-0.526c0.526-5.654,1.578-9.861,3.287-11.834c4.339-4.733,11.308-48.649,11.308-48.649l4.339,58.511 c17.75-2.498,34.975-6.837,51.41-12.754c-5.522-44.705-14.595-103.347-26.954-124.121c-16.567-27.743-70.739-30.504-77.444-36.158 c-14.069-7.889-24.193-17.619-25.771-46.94c0,0-21.037,16.304-34.186,13.806c-13.148-2.498-28.006-13.806-28.006-13.806V289.397z"></path> <path style="fill:#E4E7ED;" d="M142.069,321.479c-4.47,6.311-10.519,10.256-17.356,13.937c-7.363,6.443-59.431,10.387-78.628,34.317 c-3.287,4.207-6.574,10.256-9.598,17.882C81.192,462.167,162.843,512,256.066,512c6.048,0,11.965-0.263,17.882-0.657 c0.526-6.048,1.315-10.387,2.498-11.702c4.076-4.47,11.308-48.649,11.308-48.649l3.813,58.511 c18.934-2.63,37.21-7.363,54.566-13.937c-7.758-46.283-19.854-106.502-29.715-123.201c-16.567-27.743-70.739-30.504-77.444-36.158 c-6.048-3.419-11.308-7.1-15.515-12.491l-39.051,74.683l-42.469-76.918H142.069z"></path> <path style="fill:#FFFFFF;" d="M196.24,504.9V376.045L178.49,410.1v89.935C184.275,501.876,190.192,503.585,196.24,504.9z"></path> <path style="fill:#F0B97D;" d="M150.352,298.469c7.626,4.602,20.512,18.802,32.477,19.065c11.965,0.131,28.795-17.487,31.162-18.802 c-0.263-1.709-0.394-3.419-0.526-5.259l-0.263,0.132l0,0l0,0c-0.657,0.526-21.3,16.567-34.186,14.069 c-12.754-2.498-27.086-13.411-28.006-14.069l-0.263-0.132c-0.131,1.709-0.263,3.419-0.526,4.996H150.352z"></path> <path style="fill:#FED198;" d="M117.087,242.457c13.017,27.875,17.75,38.656,33.923,51.147c0,0,14.989,11.571,28.006,14.069 c13.148,2.498,34.186-14.069,34.186-14.069c16.173-12.491,20.906-23.404,33.923-51.147c3.156,1.709,6.574,3.945,9.072,1.052 c2.63-3.024,14.858-41.418,12.622-46.677c-2.235-5.128-6.706-1.578-7.626,0.526c-0.657,0.92-1.183,4.865-2.104,4.865 c-0.789,0-1.183-1.709-2.498-5.522c-3.682-10.519-11.439-21.432-14.463-56.933c-58.905,58.379-113.865,31.556-133.062,35.501 c-4.996,1.052-5.391,13.148-4.996,20.38c0,0.789,1.315,4.076,0.92,4.339c-0.657,0-2.63-3.156-2.893-3.419 c-19.065-12.36,5.391,46.282,5.917,46.808c2.63,3.024,5.917,0.657,9.072-1.052V242.457z"></path> <g> <path style="fill:#FFFFFF;" d="M142.069,321.479l42.469,76.918l-3.682,7.1c-6.443-9.204-19.723-40.234-22.352-40.103 c-24.193,0.131-51.016,13.411-40.629-5.259l18.013-32.082l6.048-6.574H142.069z"></path> <path style="fill:#FFFFFF;" d="M222.406,322.268l-26.297,53.777v8.284c1.315-0.789,14.2-21.3,15.252-21.3 c12.097-0.263,36.421,11.965,39.708,4.076c0.526-1.446-0.263-3.682-1.841-6.443l-17.75-29.19l-8.941-9.072L222.406,322.268z"></path> </g> <g> <path style="fill:#EDEDED;" d="M187.562,416.148c2.761,0,4.996,2.235,4.996,4.996s-2.235,4.996-4.996,4.996 s-4.996-2.235-4.996-4.996S184.801,416.148,187.562,416.148z"></path> <path style="fill:#EDEDED;" d="M187.562,430.743c2.761,0,4.996,2.235,4.996,4.996s-2.235,4.996-4.996,4.996 s-4.996-2.235-4.996-4.996S184.801,430.743,187.562,430.743z"></path> </g> <path style="fill:#83CF8F;" d="M301.559,238.381c0,0,11.965-36.027,12.36-66.137c-1.972-5.522-3.156-11.308-3.156-17.487v-27.875 c0-28.269,22.878-51.147,51.147-51.147h98.876c28.269,0,51.147,22.878,51.147,51.147v27.875c0,28.269-22.878,51.147-51.147,51.147 h-98.876c-4.076,0-8.021-0.526-11.834-1.446c-10.256,5.522-30.504,17.356-48.518,33.791V238.381z"></path> <path style="fill:#FFFFFF;" d="M485.506,108.606H343.108v-8.021h142.398V108.606z M418.58,175.137h-75.472v-8.021h75.472V175.137z M485.506,152.916H343.108v-8.021h142.398V152.916z M485.506,130.695H343.108v-8.021h142.398V130.695z"></path> </g></svg>