<svg fill="#fff" height="64px" width="64px" version="1.1" id="Layer_1" xmlns="http://www.w3.org/2000/svg" xmlns:xlink="http://www.w3.org/1999/xlink" viewBox="0 0 512.00 512.00" xml:space="preserve" stroke="#fff" stroke-width="0.0051200099999999995" transform="rotate(0)matrix(1, 0, 0, 1, 0, 0)"><g id="SVGRepo_bgCarrier" stroke-width="0"></g><g id="SVGRepo_tracerCarrier" stroke-linecap="round" stroke-linejoin="round" stroke="#CCCCCC" stroke-width="17.408034"></g><g id="SVGRepo_iconCarrier"> <g> <g> <path d="M481.155,129.813h-8.989v-8.989c0-17.009-13.837-30.846-30.845-30.846H30.846C13.837,89.979,0,103.816,0,120.825v230.517 c0,17.008,13.837,30.845,30.846,30.845h8.989v8.989c0,17.009,13.837,30.846,30.846,30.846h410.474 c17.008,0,30.845-13.837,30.845-30.846V160.659C512,143.651,498.163,129.813,481.155,129.813z M39.834,160.659v201.13h-8.987 c-5.761,0-10.448-4.687-10.448-10.447V120.825c0-5.761,4.687-10.448,10.448-10.448H441.32c5.761,0,10.447,4.688,10.447,10.448 v8.989H70.68C53.672,129.814,39.834,143.651,39.834,160.659z M491.602,391.176c0,5.76-4.687,10.448-10.447,10.448H70.68 c-5.76,0-10.448-4.688-10.448-10.448V160.659c0-5.76,4.687-10.447,10.448-10.447h410.474c5.76,0,10.447,4.687,10.447,10.447 V391.176z"></path> </g> </g> <g> <g> <path d="M449.628,207.477H326.464c-5.632,0-10.199,4.567-10.199,10.199s4.566,10.199,10.199,10.199h123.164 c5.632,0,10.199-4.567,10.199-10.199S455.26,207.477,449.628,207.477z"></path> </g> </g> <g> <g> <path d="M449.628,267.659H326.464c-5.632,0-10.199,4.567-10.199,10.199s4.566,10.199,10.199,10.199h123.164 c5.632,0,10.199-4.567,10.199-10.199S455.26,267.659,449.628,267.659z"></path> </g> </g> <g> <g> <path d="M450.134,327.841h-7.381c-5.632,0-10.199,4.567-10.199,10.199c0,5.632,4.567,10.199,10.199,10.199h7.381 c5.632,0,10.199-4.567,10.199-10.199C460.333,332.408,455.766,327.841,450.134,327.841z"></path> </g> </g> <g> <g> <path d="M407.136,327.841h-80.672c-5.632,0-10.199,4.567-10.199,10.199c0,5.632,4.567,10.199,10.199,10.199h80.672 c5.632,0,10.199-4.567,10.199-10.199C417.335,332.408,412.768,327.841,407.136,327.841z"></path> </g> </g> <g> <g> <path d="M188.605,284.33c-45.596,0-82.689,35.026-82.689,78.079c0,5.632,4.566,10.199,10.199,10.199h144.981 c5.632,0,10.199-4.567,10.199-10.199C271.295,319.356,234.2,284.33,188.605,284.33z M177.706,352.211h-50.417 c4.581-23.683,24.826-42.393,50.417-46.592V352.211z M198.104,352.21v-46.798c26.249,3.736,47.153,22.687,51.817,46.798H198.104z"></path> </g> </g> <g> <g> <path d="M187.813,177.745c-27.331,0-49.565,22.235-49.565,49.565c0,27.33,22.235,49.565,49.565,49.565 s49.565-22.235,49.565-49.565C237.378,199.98,215.144,177.745,187.813,177.745z M187.813,256.477 c-16.082,0-29.167-13.084-29.167-29.167s13.085-29.167,29.167-29.167s29.167,13.083,29.167,29.167 S203.895,256.477,187.813,256.477z"></path> </g> </g> </g></svg>