<svg width="26" height="26" viewBox="0 0 26 26" fill="none" xmlns="http://www.w3.org/2000/svg">
<rect opacity="0.2" width="26" height="26" rx="5" fill="#FF5E14"/>
<path fill-rule="evenodd" clip-rule="evenodd" d="M16.4996 9.56685L9.60117 14.1326L9.60095 17.0845C9.60082 18.708 9.58812 20.2556 9.57267 20.5235C9.55364 20.8537 9.5589 21.0053 9.58906 20.9941C9.61349 20.985 12.699 17.4257 16.4458 13.0845C20.1926 8.74332 23.2977 5.14811 23.3461 5.09519C23.3946 5.04227 23.4261 4.99941 23.4161 5.00001C23.4061 5.00056 20.2937 7.05566 16.4996 9.56685Z" fill="#FF5E14"/>
<path fill-rule="evenodd" clip-rule="evenodd" d="M7.65401 12.5393L9.63135 14.1335V18.2074C9.6314 19.3669 9.59376 20.472 9.6 20.6634C9.6077 20.8992 9.60558 21.0074 9.59338 20.9994C9.5835 20.9929 8.33553 18.4511 6.82014 15.3509C5.30474 12.2507 4.04885 9.68317 4.02926 9.64537C4.00967 9.60758 3.99694 9.57697 4.00099 9.5774C4.00502 9.57779 4.40665 9.87686 7.65401 12.5393Z" fill="#FF5E14"/>
</svg>
