<svg fill="#000000" height="64px" width="64px" version="1.1" id="Layer_1" xmlns="http://www.w3.org/2000/svg" xmlns:xlink="http://www.w3.org/1999/xlink" viewBox="0 0 507.9 507.9" xml:space="preserve"><g id="SVGRepo_bgCarrier" stroke-width="0"></g><g id="SVGRepo_tracerCarrier" stroke-linecap="round" stroke-linejoin="round"></g><g id="SVGRepo_iconCarrier"> <g> <g> <path d="M465.7,0H42.3C19,0,0,19,0,42.3v409.2c0,23.3,19,42.3,42.3,42.3h26.1c0,7.8,6.3,14.1,14.1,14.1h50.9 c7.8,0,14.1-6.3,14.1-14.1h212.9c0,7.8,6.3,14.1,14.1,14.1h50.9c7.8,0,14.1-6.3,14.1-14.1h26.1c23.3,0,42.3-19,42.3-42.3V42.3 C508,19,489,0,465.7,0z M465.7,465.7H42.3c-7.8,0-14.1-6.3-14.1-14.1V42.3c0-7.8,6.3-14.1,14.1-14.1h423.3 c7.8,0,14.1,6.3,14.1,14.1v409.3h0.1C479.8,459.4,473.5,465.7,465.7,465.7z"></path> </g> </g> <g> <g> <path d="M437.4,56.4H70.6c-7.8,0-14.1,6.3-14.1,14.1v162.3c0,7.8,6.3,14.1,14.1,14.1h366.9c7.8,0,14.1-6.3,14.1-14.1V70.6 C451.6,62.8,445.2,56.4,437.4,56.4z M239.9,218.7h-64L144,125.6c-2.5-7.4-10.6-11.3-17.9-8.8c-7.4,2.5-11.3,10.6-8.8,17.9l28.8,84 H84.7v-134h155.2V218.7z M423.4,218.7h-0.1H362l28.8-84c2.5-7.4-1.4-15.4-8.8-17.9c-7.4-2.5-15.4,1.4-17.9,8.8l-31.9,93.1h-64 v-134h155.2V218.7z"></path> </g> </g> <g> <g> <path d="M104.3,350.1c-24.3,0-44.1,19.8-44.1,44.1c0,24.3,19.8,44.1,44.1,44.1c24.3,0,44.1-19.8,44.1-44.1 C148.4,369.9,128.6,350.1,104.3,350.1z M104.3,410.1c-8.8,0-15.9-7.1-15.9-15.9s7.1-15.9,15.9-15.9c8.8,0,15.9,7.1,15.9,15.9 S113,410.1,104.3,410.1z"></path> </g> </g> <g> <g> <path d="M403.7,350.1c-24.3,0-44.1,19.8-44.1,44.1c0,24.3,19.8,44.1,44.1,44.1s44.1-19.8,44.1-44.1 C447.8,369.9,428,350.1,403.7,350.1z M403.7,410.1c-8.8,0-15.9-7.1-15.9-15.9s7.1-15.9,15.9-15.9s15.9,7.1,15.9,15.9 S412.5,410.1,403.7,410.1z"></path> </g> </g> <g> <g> <path d="M420.4,286.3h-6.3V280c0-7.8-6.3-14.1-14.1-14.1s-14.1,6.3-14.1,14.1v6.3h-6.3c-7.8,0-14.1,6.3-14.1,14.1 s6.3,14.1,14.1,14.1h6.3v6.3c0,7.8,6.3,14.1,14.1,14.1s14.1-6.3,14.1-14.1v-6.3h6.3c7.8,0,14.1-6.3,14.1-14.1 C434.5,292.6,428.2,286.3,420.4,286.3z"></path> </g> </g> <g> <g> <path d="M124.7,286.3H83.9c-7.8,0-14.1,6.3-14.1,14.1c0,7.8,6.3,14.1,14.1,14.1h40.8c7.8,0,14.1-6.3,14.1-14.1 C138.8,292.6,132.5,286.3,124.7,286.3z"></path> </g> </g> </g></svg>