<svg width="50" height="50" viewBox="0 0 50 50" fill="none" xmlns="http://www.w3.org/2000/svg">
<path d="M36.6251 6.91523C37.0297 6.91523 37.3576 6.5873 37.3576 6.18271C37.3576 5.77812 37.0297 5.4502 36.6251 5.4502H17.5392C17.1346 5.4502 16.8066 5.77812 16.8066 6.18271C16.8066 6.5873 17.1346 6.91523 17.5392 6.91523H36.6251Z" fill="#FF5E14"/>
<path d="M12.6426 10.7643C12.6426 11.1688 12.9705 11.4968 13.3751 11.4968H36.6258C37.0304 11.4968 37.3583 11.1688 37.3583 10.7643C37.3583 10.3597 37.0304 10.0317 36.6258 10.0317H13.3751C12.9705 10.0317 12.6426 10.3597 12.6426 10.7643Z" fill="#FF5E14"/>
<path d="M13.3751 16.0778H36.6258C37.0304 16.0778 37.3583 15.7499 37.3583 15.3453C37.3583 14.9407 37.0304 14.6128 36.6258 14.6128H13.3751C12.9705 14.6128 12.6426 14.9407 12.6426 15.3453C12.6426 15.75 12.9705 16.0778 13.3751 16.0778Z" fill="#FF5E14"/>
<path d="M36.6254 19.1943H25.0001C24.5955 19.1943 24.2676 19.5223 24.2676 19.9269C24.2676 20.3314 24.5955 20.6594 25.0001 20.6594H36.6254C37.03 20.6594 37.3579 20.3314 37.3579 19.9269C37.3579 19.5222 37.03 19.1943 36.6254 19.1943Z" fill="#FF5E14"/>
<path d="M36.6254 23.7759H25.0001C24.5955 23.7759 24.2676 24.1038 24.2676 24.5084C24.2676 24.913 24.5955 25.2409 25.0001 25.2409H36.6254C37.03 25.2409 37.3579 24.913 37.3579 24.5084C37.3579 24.1038 37.03 23.7759 36.6254 23.7759Z" fill="#FF5E14"/>
<path d="M48.7112 23.8482C48.6619 22.5629 47.9714 21.379 46.8642 20.6814L42.9209 18.1971V14.1986H45.6946C47.1994 14.1986 48.4236 12.9744 48.4236 11.4696V3.48379C48.4236 1.56279 46.8608 0 44.9398 0H10.2402C8.31719 0 6.75264 1.56445 6.75264 3.4875V8.59082C6.75264 8.99541 7.08057 9.32334 7.48516 9.32334C7.88975 9.32334 8.21768 8.99541 8.21768 8.59082V3.4875C8.21768 2.37227 9.125 1.46494 10.2403 1.46494H42.1021C41.6955 2.03486 41.4561 2.73184 41.4561 3.48379V25.0015L29.5761 34.1522L27.1566 32.3189C25.8872 31.3569 24.1138 31.3569 22.8443 32.3189L20.4248 34.1521L8.21777 24.7495V12.0152C8.21777 11.6106 7.88984 11.2827 7.48525 11.2827C7.08066 11.2827 6.75273 11.6106 6.75273 12.0152V18.4031L3.13652 20.6815C2.0293 21.3791 1.33877 22.5629 1.28945 23.8485C1.2873 23.9053 1.28613 23.9628 1.28613 24.0214V45.9077C1.28604 48.1642 3.09023 50 5.30791 50H44.6927C46.9104 50 48.7146 48.1642 48.7146 45.9076V24.0213C48.7146 23.9627 48.7135 23.9052 48.7112 23.8482ZM44.9398 1.46494C46.0531 1.46494 46.9587 2.37051 46.9587 3.48379V11.4696C46.9587 12.1666 46.3917 12.7337 45.6946 12.7337H42.9209V3.48379C42.9209 2.3707 43.8267 1.46494 44.9398 1.46494ZM42.9209 19.9286L45.7377 21.7033L42.9209 23.873V19.9286ZM3.11924 47.2646C2.88564 46.8683 2.75107 46.4038 2.75107 45.9076V24.0213C2.75107 23.9816 2.75186 23.9426 2.75322 23.9044C2.77002 23.468 2.90732 23.05 3.14072 22.6883L19.2145 35.0692L3.11924 47.2646ZM6.75264 23.6211L4.26289 21.7033L6.75264 20.1346V23.6211ZM5.30791 48.5351C4.91377 48.5351 4.54033 48.4429 4.20664 48.2785L23.7288 33.4865C24.4892 32.9103 25.5112 32.9104 26.2718 33.4865L32.458 38.1739C32.7804 38.4185 33.2399 38.3549 33.4842 38.0325C33.7285 37.7101 33.6652 37.2506 33.3428 37.0063L30.7862 35.0692L46.86 22.6882C47.0935 23.0499 47.2307 23.4679 47.2475 23.9041C47.2489 23.9426 47.2496 23.9815 47.2496 24.0212V45.9075C47.2496 46.4037 47.1149 46.8682 46.8814 47.2645L36.0742 39.0758C35.7519 38.8312 35.2922 38.8947 35.048 39.2172C34.8037 39.5396 34.867 39.9991 35.1895 40.2434L45.7939 48.2783C45.4603 48.4427 45.0868 48.5349 44.6927 48.5349H5.30791V48.5351Z" fill="#FF5E14"/>
<path d="M12.6426 23.8354C12.6426 24.6103 13.273 25.2407 14.0479 25.2407H21.0316C21.8064 25.2407 22.4369 24.6103 22.4369 23.8354V20.5996C22.4369 19.8248 21.8064 19.1943 21.0316 19.1943H14.0479C13.273 19.1943 12.6426 19.8248 12.6426 20.5996V23.8354ZM14.1075 20.6593H20.972V23.7757H14.1075V20.6593Z" fill="#FF5E14"/>
</svg>
