<svg width="64px" height="64px" viewBox="0 0 100 100" data-name="Layer 1" id="Layer_1" xmlns="http://www.w3.org/2000/svg" fill="#000000"><g id="SVGRepo_bgCarrier" stroke-width="0"></g><g id="SVGRepo_tracerCarrier" stroke-linecap="round" stroke-linejoin="round"></g><g id="SVGRepo_iconCarrier"><defs><style>.cls-1{fill:#000000;}</style></defs><path class="cls-1" d="M96.4,20.35H70.9a1.18,1.18,0,0,1-.7-.24l-7-5.35a2.17,2.17,0,0,0-1.31-.44H54.13l-1.61-3.48a.48.48,0,0,0-.45-.29H8.68a.53.53,0,0,0-.24.06,13.08,13.08,0,0,0-7,12.17c.41,7.1,6.7,10.53,7,10.67a.53.53,0,0,0,.24.06h3.07v1a.5.5,0,0,0,.08.26,20.34,20.34,0,0,1,2.52,6.17c1.86,8.31-2.24,15.47-4.1,18.17a.54.54,0,0,0-.08.28v1H7.91a4.57,4.57,0,0,0-4.2,2.55,4.23,4.23,0,0,0-.36,1.21,4.74,4.74,0,0,0,.58,3,4.56,4.56,0,0,0,4,2.18H28.44a3.35,3.35,0,0,1,1.49,6.38,3.26,3.26,0,0,1-1.45.28H13.67a4.52,4.52,0,0,0-4.06,2.28,4.65,4.65,0,0,0-.54,2.28,4.42,4.42,0,0,0,4.62,4.3H40.42v.68a4,4,0,0,0,4,4h2a.5.5,0,0,0,.5-.5V87.33h3.19v-1H46.89V82.69h3.19v-1H46.89V80.06a.5.5,0,0,0-.5-.5h-2a4,4,0,0,0-4,4v.31H13.69a3.58,3.58,0,0,1-3.33-2,3.67,3.67,0,0,1-.29-1.3A3.42,3.42,0,0,1,13.67,77H28.48a4.22,4.22,0,0,0,1.89-.39,4.36,4.36,0,0,0,.33-7.7,4.26,4.26,0,0,0-2.26-.57H7.92A3.55,3.55,0,0,1,4.8,66.63a3.76,3.76,0,0,1-.47-2.37,3.7,3.7,0,0,1,.28-.93,3.58,3.58,0,0,1,3.3-2h2.26v1a.5.5,0,0,0,.5.5h20a.5.5,0,0,0,.5-.5V60.81a.51.51,0,0,0-.32-.47l-4.8-1.76c-1.76-9.66-1-16.91,1.91-18.07a3.28,3.28,0,0,1,2.17,0,.48.48,0,0,0,.53-.16.5.5,0,0,0,.06-.55A4.94,4.94,0,0,1,30.35,36a4.35,4.35,0,0,1,.76-1.36.52.52,0,0,0,.11-.32v-.85h16v2.8H44.05a.51.51,0,0,0-.5.5v2.7a.51.51,0,0,0,.5.5h1.84V64.93a.49.49,0,0,0,.17.36h-2a.51.51,0,0,0-.5.5v2.7a.51.51,0,0,0,.5.5h9.76a.51.51,0,0,0,.5-.5v-2.7a.51.51,0,0,0-.5-.5H52.36a.48.48,0,0,0,.16-.36V40h1.29a.51.51,0,0,0,.5-.5v-2.7a.51.51,0,0,0-.5-.5H50.58v-2.8H52a.52.52,0,0,0,.43-.24l1.64-2.65h7.79a2.17,2.17,0,0,0,1.31-.44l7-5.35a1.18,1.18,0,0,1,.7-.24H96.4a2.12,2.12,0,1,0,0-4.24Zm-55,63.16a3,3,0,0,1,3-3h1.47v7.89H44.42a3,3,0,0,1-3-3ZM53.31,68H44.55v-1.7h8.76ZM11.17,32.51V29.66a.5.5,0,0,0-.32-.46c-4.07-1.58-6.51-5.74-5.44-9.28s5.21-4.72,5.39-4.76a.5.5,0,0,0,.37-.49V11.55H45.56v21Zm35.39-21h5l0,21h-5Zm6,1.77.74,1.61V30l-.79,1.26ZM2.48,22.73A12.07,12.07,0,0,1,8.81,11.55h1.36v2.76c-1.2.4-4.67,1.84-5.72,5.32-1.2,4,1.3,8.5,5.72,10.37v2.51H8.81C8,32,2.84,28.86,2.48,22.73ZM15.32,40.67a21.21,21.21,0,0,0-2.57-6.35v-.81H17.9L16,58.45H11.84C13.92,55.06,17.05,48.35,15.32,40.67Zm14.9,20.49v.72h-19V59.5l0,0h5.22a.49.49,0,0,0,.5-.46l2-25.48h1.68L18.9,58.72a.54.54,0,0,0,.13.37.53.53,0,0,0,.36.17l6.17.19Zm0-27a5.53,5.53,0,0,0-.82,1.53,5.61,5.61,0,0,0,.09,3.64,3.75,3.75,0,0,0-1.85.22c-3.43,1.38-4.4,8.58-2.58,18.85l-5.12-.16,1.64-24.76h8.64Zm21.3,30.24H46.89V40h4.63ZM53.31,39H44.55v-1.7h8.76Zm-3.73-2.7H48.23v-2.8h1.35Zm13-6.93a1.19,1.19,0,0,1-.71.24H54.31V15.32h7.57a1.19,1.19,0,0,1,.71.24l4,3v7.72ZM96.4,23.59H70.9a2.14,2.14,0,0,0-1.31.45l-2,1.53v-6.2l2,1.53a2.14,2.14,0,0,0,1.31.45H96.4a1.12,1.12,0,1,1,0,2.24Z"></path><rect class="cls-1" height="1" width="4.54" x="6.82" y="19.74"></rect><rect class="cls-1" height="1" width="2.61" x="8.75" y="16.36"></rect><rect class="cls-1" height="1" width="4.54" x="6.82" y="23.32"></rect><rect class="cls-1" height="1" width="2.61" x="8.75" y="26.7"></rect><path class="cls-1" d="M43.73,20.35H13.55a.5.5,0,0,0-.5.5v6.58a.5.5,0,0,0,.5.5H43.73a.5.5,0,0,0,.5-.5V20.85A.5.5,0,0,0,43.73,20.35Zm-.5,6.58H14.05V21.35H43.23Z"></path><path class="cls-1" d="M43.73,15.71H13.55a.5.5,0,0,0-.5.5v2.15a.5.5,0,0,0,.5.5H43.73a.5.5,0,0,0,.5-.5V16.21A.5.5,0,0,0,43.73,15.71Zm-.5,2.15H14.05V16.71H43.23Z"></path></g></svg>