<svg width="234" height="144" viewBox="0 0 234 144" fill="none" xmlns="http://www.w3.org/2000/svg">
<g opacity="0.13">
<path d="M57.8037 109.039L57.9347 108.399L57.2832 108.439C25.8028 110.375 0.5 85.1321 0.5 54.5537C0.5 24.6941 24.4609 0.5 54 0.5C83.5442 0.5 107.5 24.6993 107.5 54.5537C107.5 90.6132 80.1925 122.451 50.0035 142.869L50.0029 142.87C46.8884 144.983 43.0835 141.29 45.1594 138.034L45.1595 138.034C50.3125 129.947 55.6432 119.59 57.8037 109.039Z" stroke="#52C306"/>
<path d="M185.212 109.036L185.339 108.399L184.69 108.44C154.107 110.373 129.5 85.1467 129.5 54.5537C129.5 24.6806 152.802 0.5 181.5 0.5C210.203 0.5 233.5 24.6859 233.5 54.5537C233.5 90.6197 206.948 122.457 177.601 142.873L177.601 142.873C176.082 143.933 174.433 143.546 173.382 142.47C172.327 141.39 171.914 139.651 172.92 138.029L172.92 138.029C177.93 129.941 183.112 119.586 185.212 109.036Z" stroke="#52C306"/>
</g>
</svg>
