<svg width="78" height="48" viewBox="0 0 78 48" fill="none" xmlns="http://www.w3.org/2000/svg">
<path opacity="0.1" d="M36 18.1846C36 8.14267 27.9417 0 18 0C8.06001 0 0 8.1409 0 18.1846C0 28.4694 8.51128 36.9641 19.1046 36.3128C18.3903 39.8016 16.6253 43.2339 14.9126 45.9217C14.1303 47.1486 15.5625 48.5744 16.7612 47.7611C26.8406 40.9439 36 30.2877 36 18.1846Z" fill="#FF5E14"/>
<path opacity="0.1" d="M78 18.1846C78 8.14267 70.1656 0 60.5 0C50.8361 0 43 8.1409 43 18.1846C43 28.4694 51.2748 36.9641 61.5739 36.3128C60.8794 39.8016 59.1635 43.2339 57.4983 45.9217C56.7378 47.1486 58.1302 48.5744 59.2956 47.7611C69.095 40.9439 78 30.2877 78 18.1846Z" fill="#FF5E14"/>
</svg>
