<svg fill="#000000" height="64px" width="64px" version="1.1" id="Icons" xmlns="http://www.w3.org/2000/svg" xmlns:xlink="http://www.w3.org/1999/xlink" viewBox="0 0 32 32" xml:space="preserve"><g id="SVGRepo_bgCarrier" stroke-width="0"></g><g id="SVGRepo_tracerCarrier" stroke-linecap="round" stroke-linejoin="round"></g><g id="SVGRepo_iconCarrier"> <path d="M26,3H11C9.4,3,8.1,4.3,8,5.9L6.3,4.5C5.7,4,4.8,3.9,4.1,4.2C3.4,4.5,3,5.2,3,6v6c0,0.8,0.4,1.5,1.1,1.8 C4.4,13.9,4.7,14,5,14c0.4,0,0.9-0.2,1.3-0.5L8,12.1c0.1,1.6,1.4,2.9,3,2.9h15c1.7,0,3-1.3,3-3V6C29,4.3,27.7,3,26,3z M23,8h-3 c-0.6,0-1-0.4-1-1s0.4-1,1-1h3c0.6,0,1,0.4,1,1S23.6,8,23,8z"></path> <path d="M29,26v-4c0-0.6-0.4-1-1-1s-1,0.4-1,1v2.5L21.4,22c-0.8-0.4-1.4-1.2-1.4-2.1V18h3c0.6,0,1-0.4,1-1s-0.4-1-1-1h-8 c-0.6,0-1,0.4-1,1s0.4,1,1,1h3v1.8c0,1.7,1,3.3,2.6,3.9l6.4,2.9V29c0,0.6,0.4,1,1,1s1-0.4,1-1V26C29,26,29,26,29,26z"></path> </g></svg>