<svg width="30" height="31" viewBox="0 0 30 31" fill="none" xmlns="http://www.w3.org/2000/svg">
<path d="M29.1422 5.0982C28.7009 4.65611 27.9848 4.65535 27.5435 5.09633L13.9794 18.6246L9.08554 13.3094C8.66267 12.8503 7.94771 12.8206 7.48793 13.2434C7.02849 13.6662 6.99908 14.3816 7.42195 14.841L13.1129 21.0215C13.3213 21.248 13.613 21.3796 13.9206 21.386C13.9288 21.3863 13.9368 21.3863 13.9447 21.3863C14.2436 21.3863 14.5311 21.2676 14.7429 21.0566L29.14 6.69728C29.5824 6.25637 29.5832 5.54029 29.1422 5.0982Z" fill="#0E121D"/>
<path d="M28.8693 14.8661C28.2448 14.8661 27.7387 15.3723 27.7387 15.9968C27.7387 23.0212 22.0244 28.7355 15 28.7355C7.97602 28.7355 2.26131 23.0212 2.26131 15.9968C2.26131 8.97284 7.97602 3.25813 15 3.25813C15.6245 3.25813 16.1307 2.752 16.1307 2.12751C16.1307 1.50296 15.6245 0.996826 15 0.996826C6.72891 0.996826 0 7.72573 0 15.9968C0 24.2676 6.72891 30.9968 15 30.9968C23.2707 30.9968 30 24.2676 30 15.9968C30 15.3723 29.4939 14.8661 28.8693 14.8661Z" fill="#FF5E14"/>
</svg>
